<svg id="Camada_1" data-name="Camada 1" xmlns="http://www.w3.org/2000/svg" viewBox="0 0 16.103 3.589">
  <defs>
    <style>
      .cls-1 {
        fill: #999;
      }

      .cls-2, .cls-3 {
        fill: #fff;
      }

      .cls-3, .cls-4 {
        fill-rule: evenodd;
      }

      .cls-4 {
        fill: #fcfcfc;
      }
    </style>
  </defs>
  <title>17ab1d5a-c386-4d94-9230-75e9c32fdbe5</title>
  <g>
    <circle class="cls-1" cx="5.902" cy="1.776" r="1.777"/>
    <g>
      <path class="cls-2" d="M5.13,1.3V1.036h.282V1.3Zm0,1.216V1.445h.282V2.515Z"/>
      <path class="cls-2" d="M6.677,2.515H6.392V1.969a.8.8,0,0,0-.019-.223.154.154,0,0,0-.058-.082.172.172,0,0,0-.1-.025.229.229,0,0,0-.132.039.191.191,0,0,0-.079.108.912.912,0,0,0-.023.245v.483H5.7V1.445h.264V1.6a.43.43,0,0,1,.523-.148A.287.287,0,0,1,6.6,1.54a.328.328,0,0,1,.056.118.932.932,0,0,1,.017.193Z"/>
    </g>
  </g>
  <g>
    <circle class="cls-1" cx="1.778" cy="1.79" r="1.778"/>
    <path class="cls-2" d="M1.2,1.285h.25V1.158A.866.866,0,0,1,1.5.839.358.358,0,0,1,1.667.668.63.63,0,0,1,1.976.6a1.256,1.256,0,0,1,.375.057L2.29.971A.917.917,0,0,0,2.084.945a.178.178,0,0,0-.139.047.253.253,0,0,0-.042.174v.119h.335v.354H1.9V2.979H1.454V1.639H1.2Z"/>
  </g>
  <g>
    <circle class="cls-1" cx="10.028" cy="1.79" r="1.777"/>
    <path class="cls-3" d="M8.85,2.686A1.108,1.108,0,0,0,9.4,2.592a.935.935,0,0,0,.22-.13.533.533,0,0,1-.478-.336c-.012-.03-.012-.03.021-.027a.419.419,0,0,0,.192-.014.661.661,0,0,1-.126-.047.528.528,0,0,1-.283-.447c0-.024,0-.026.025-.016a.492.492,0,0,0,.207.054,1.079,1.079,0,0,1-.09-.08A.537.537,0,0,1,9,.954c.013-.025.019-.025.037,0a1.485,1.485,0,0,0,.914.51c.039.006.078.008.118.014.024,0,.028-.008.024-.028a.526.526,0,0,1,.881-.471.051.051,0,0,0,.057.014,1.071,1.071,0,0,0,.277-.108.147.147,0,0,0,.022-.013.538.538,0,0,1-.222.289,1.062,1.062,0,0,0,.282-.074c0,.014-.007.021-.012.029a1.07,1.07,0,0,1-.218.223.045.045,0,0,0-.021.043A1.523,1.523,0,0,1,10.781,2.4a1.393,1.393,0,0,1-.875.492,1.5,1.5,0,0,1-1.044-.2Z"/>
  </g>
  <g>
    <circle class="cls-1" cx="14.325" cy="1.812" r="1.777"/>
    <path class="cls-4" d="M15.039.846H13.614a.228.228,0,0,0-.256.258V2.526a.227.227,0,0,0,.25.253h1.431a.229.229,0,0,0,.254-.256V1.1A.227.227,0,0,0,15.039.846Zm-.157.218c.191,0,.191,0,.191.193s0,.188-.187.188-.191,0-.191-.191S14.694,1.064,14.881,1.064Zm-.555.373a.375.375,0,1,1-.377.37A.379.379,0,0,1,14.327,1.437Zm.746,1.007c0,.09-.025.114-.115.114H13.693c-.089,0-.114-.024-.114-.114,0-.234,0-.471,0-.7,0-.066.019-.082.081-.08.088.008.09,0,.079.089A.593.593,0,1,0,14.908,1.7c-.007-.033,0-.04.031-.04.134-.01.134-.013.134.125Z"/>
  </g>
</svg>
