<svg id="Camada_1" data-name="Camada 1" xmlns="http://www.w3.org/2000/svg" viewBox="0 0 512 512">
  <defs>
    <style>
      .cls-1 {
        fill: #ff8e31;
      }

      .cls-2 {
        fill: #ed7425;
      }

      .cls-3 {
        fill: #34495e;
      }

      .cls-4 {
        fill: #106f89;
      }

      .cls-5 {
        fill: #0c98af;
      }

      .cls-6 {
        fill: #283a4d;
      }

      .cls-7 {
        fill: #5d6d7e;
      }

      .cls-8 {
        fill: #f2f9ff;
      }

      .cls-9 {
        fill: #fff;
      }
    </style>
  </defs>
  <title>a0639507-ee73-4738-a23e-3fe8d2edb9bb</title>
  <circle class="cls-1" cx="256" cy="256" r="256"/>
  <path class="cls-2" d="M507.758,302.185,330.6,125.041l-8.563-8.553A99.145,99.145,0,0,0,261.652,91.6c-.118-.005-.23-.005-.343-.013-1.572-.087-3.154-.131-4.721-.141-.428,0-.858,0-1.28.005-1.277.01-2.563.038-3.84.1-.52.026-1.039.049-1.559.077-1.229.082-2.452.179-3.681.3-.5.049-1.006.092-1.51.143q-2.12.246-4.234.579c-.282.044-.576.077-.858.12-1.692.284-3.372.612-5.043.973-.428.1-.855.212-1.277.31-1.236.289-2.465.594-3.686.924-.6.161-1.188.343-1.777.52-1.06.3-2.12.632-3.167.98-.627.2-1.252.417-1.869.635q-1.559.553-3.1,1.155c-.589.228-1.18.458-1.769.7-1.137.466-2.26.973-3.392,1.485-.451.207-.906.4-1.357.612q-2.339,1.11-4.628,2.348c-.289.156-.568.325-.85.484-1.244.689-2.473,1.4-3.694,2.14-.512.317-1.016.65-1.531.975q-1.475.937-2.916,1.925c-.548.379-1.1.765-1.636,1.155-.919.663-1.841,1.352-2.747,2.048-.527.407-1.047.812-1.574,1.231-.947.76-1.889,1.554-2.816,2.363-.435.384-.878.753-1.313,1.139q-2.024,1.8-3.968,3.743c-1.2,1.206-2.373,2.435-3.5,3.684-.4.438-.773.893-1.16,1.339-.717.822-1.441,1.638-2.127,2.483-.415.5-.794,1.016-1.188,1.528-.632.8-1.272,1.595-1.874,2.412-.4.548-.773,1.108-1.165,1.667-.563.794-1.132,1.58-1.664,2.388-.387.576-.73,1.162-1.1,1.743-.512.806-1.024,1.608-1.51,2.419-.351.586-.668,1.188-1.006,1.782-.471.824-.947,1.644-1.39,2.478-.31.6-.6,1.2-.9,1.795-.422.85-.858,1.7-1.257,2.555-.282.6-.54,1.211-.806,1.815-.387.87-.781,1.736-1.132,2.616-.253.6-.479,1.219-.717,1.833-.335.883-.689,1.769-1,2.662-.218.614-.415,1.236-.617,1.853-.3.9-.6,1.8-.878,2.7-.182.625-.351,1.257-.527,1.889-.253.9-.5,1.8-.73,2.714-.161.643-.3,1.288-.451,1.935-.2.9-.415,1.8-.589,2.716-.125.653-.238,1.306-.358,1.964-.161.906-.323,1.81-.456,2.716-.1.671-.177,1.344-.266,2.02-.113.9-.23,1.787-.323,2.691-.069.689-.12,1.377-.177,2.071-.069.878-.141,1.756-.189,2.637-.036.719-.056,1.434-.077,2.145-.036.858-.056,1.713-.064,2.575-.005.74.008,1.485.02,2.227.008.829.028,1.654.056,2.483.036.776.084,1.546.133,2.317.049.794.1,1.587.169,2.381s.161,1.608.246,2.412c.092.755.177,1.505.274,2.258.113.842.246,1.679.379,2.516.118.709.23,1.416.358,2.125.161.878.346,1.748.527,2.619.141.663.279,1.321.435,1.976.212.916.443,1.833.681,2.747.161.6.317,1.2.484,1.8.274.955.561,1.915.863,2.862.169.543.343,1.085.527,1.628.338,1,.689,1.992,1.055,2.985.174.481.358.955.54,1.428.4,1.047.835,2.086,1.272,3.118q.261.618.532,1.231.726,1.62,1.5,3.223c.174.351.343.7.52,1.047.568,1.121,1.152,2.23,1.756,3.336.156.276.317.558.471.84q.979,1.732,2.028,3.436c.141.218.274.435.407.653q1.129,1.782,2.324,3.525c.1.148.212.3.317.453q1.275,1.816,2.634,3.6c.077.092.148.187.218.276q1.432,1.855,2.957,3.651c.036.036.072.074.1.108,1.72,2.017,3.5,3.994,5.407,5.9.422.42.878.781,1.3,1.193l1.073,1.075,49.7,49.7.005.008a7.922,7.922,0,0,0-1.4,1.091,7.681,7.681,0,0,0-2.268,5.45V398.52a21.875,21.875,0,0,0,6.477,15.578l87.549,87.57A256.231,256.231,0,0,0,507.758,302.185Z"/>
  <polygon class="cls-3" points="266.885 287.997 266.9 297.336 266.872 308.196 266.88 312.417 245.107 312.402 245.1 287.997 266.885 287.997"/>
  <path class="cls-4" d="M233.956,323.436v75.077a22.045,22.045,0,1,0,44.091-.008l.008-75.069h-44.1Z"/>
  <path class="cls-5" d="M244.314,323.436h-6.1v75.077a17.8,17.8,0,0,0,17.8,17.789,3.053,3.053,0,0,0,0-6.106,11.7,11.7,0,0,1-11.694-11.681v-75.08Z"/>
  <g>
    <path class="cls-6" d="M278.052,323.436h-44.1v-3.308a7.7,7.7,0,0,1,7.7-7.726l28.682.015a7.687,7.687,0,0,1,7.706,7.7Z"/>
    <path class="cls-6" d="M326.477,120.625a99.676,99.676,0,1,0,.02,140.982A99.673,99.673,0,0,0,326.477,120.625Z"/>
  </g>
  <path class="cls-7" d="M318.858,253.975a88.891,88.891,0,1,1,0-125.716A88.893,88.893,0,0,1,318.858,253.975Z"/>
  <path class="cls-8" d="M255.992,107.709a83.409,83.409,0,1,0,83.412,83.4A83.41,83.41,0,0,0,255.992,107.709Z"/>
  <path class="cls-5" d="M256,131.333a59.776,59.776,0,1,0,59.781,59.779A59.8,59.8,0,0,0,256,131.333Z"/>
  <path class="cls-3" d="M286.643,191.112A30.643,30.643,0,1,1,256,160.474,30.632,30.632,0,0,1,286.643,191.112Z"/>
  <g>
    <path class="cls-9" d="M230.331,139.156c5.716,5.706,4.46,16.238-2.8,23.5s-17.789,8.507-23.493,2.783c-5.724-5.706-4.475-16.233,2.788-23.5C214.093,134.692,224.622,133.435,230.331,139.156Z"/>
    <path class="cls-9" d="M250.557,173.315c2.691,2.685,2.1,7.634-1.313,11.044s-8.358,4.014-11.054,1.313-2.1-7.626,1.313-11.044C242.931,171.208,247.875,170.621,250.557,173.315Z"/>
  </g>
</svg>
