<svg id="Camada_1" data-name="Camada 1" xmlns="http://www.w3.org/2000/svg" viewBox="0 0 84.662 84.663">
  <defs>
    <style>
      .cls-1 {
        fill: #16344e;
      }

      .cls-2 {
        fill: #e8e8e8;
      }

      .cls-3 {
        fill: #4ab4bb;
      }

      .cls-4 {
        fill: #a3a3a3;
      }

      .cls-5 {
        fill: #464545;
      }
    </style>
  </defs>
  <title>23a6ec07-e8a1-442f-a3b4-791a626365e7</title>
  <g>
    <circle class="cls-1" cx="42.331" cy="42.332" r="42.331"/>
    <g>
      <g>
        <g>
          <rect class="cls-2" x="28.996" y="18.018" width="25.851" height="17.181" rx="1.594" ry="1.594"/>
          <rect class="cls-3" x="30.527" y="19.549" width="22.79" height="12.557" rx="0.707" ry="0.707"/>
          <rect class="cls-2" x="39.608" y="34.451" width="4.628" height="2.553"/>
          <path class="cls-2" d="M45.37,36.583h-6.9a.452.452,0,1,0,0,.9h6.9a.452.452,0,0,0,0-.9Z"/>
          <circle class="cls-4" cx="41.922" cy="33.72" r="0.585"/>
        </g>
        <g>
          <path class="cls-5" d="M41.6,22.035a1.127,1.127,0,0,0-1.126,1.127v1.112a1.127,1.127,0,1,0,2.253,0V23.162A1.127,1.127,0,0,0,41.6,22.035Z"/>
          <path class="cls-5" d="M42.687,25.182a1.378,1.378,0,0,1-2.163.023A2.476,2.476,0,0,0,39.2,27.4V29.62h4.959V27.4A2.409,2.409,0,0,0,42.687,25.182Z"/>
        </g>
      </g>
      <g>
        <g>
          <g>
            <rect class="cls-2" x="9.862" y="42.318" width="25.851" height="17.182" rx="1.594" ry="1.594"/>
            <path class="cls-3" d="M12.1,43.849H33.477a.707.707,0,0,1,.707.707V55.7a.707.707,0,0,1-.707.707H12.1a.708.708,0,0,1-.708-.708V44.556A.707.707,0,0,1,12.1,43.849Z"/>
            <rect class="cls-2" x="20.474" y="58.751" width="4.628" height="2.553"/>
            <path class="cls-2" d="M26.236,60.883h-6.9a.452.452,0,1,0,0,.9h6.9a.452.452,0,1,0,0-.9Z"/>
            <circle class="cls-4" cx="22.788" cy="58.02" r="0.585"/>
          </g>
          <g>
            <path class="cls-5" d="M22.463,46.335a1.127,1.127,0,0,0-1.127,1.126v1.112a1.127,1.127,0,1,0,2.253,0V47.462A1.127,1.127,0,0,0,22.463,46.335Z"/>
            <path class="cls-5" d="M23.554,49.481a1.379,1.379,0,0,1-2.164.023A2.477,2.477,0,0,0,20.063,51.7V53.92h4.958V51.7A2.409,2.409,0,0,0,23.554,49.481Z"/>
          </g>
        </g>
        <path class="cls-2" d="M39.981,36.554h-14.6a2.727,2.727,0,0,0-2.724,2.724v3.639a.45.45,0,0,0,.9,0V39.278a1.826,1.826,0,0,1,1.824-1.824h14.6a.45.45,0,0,0,0-.9Z"/>
      </g>
      <g>
        <g>
          <g>
            <rect class="cls-2" x="48.386" y="42.318" width="25.852" height="17.182" rx="1.594" ry="1.594"/>
            <rect class="cls-3" x="49.916" y="43.849" width="22.791" height="12.557" rx="0.707" ry="0.707"/>
            <rect class="cls-2" x="58.998" y="58.751" width="4.627" height="2.553"/>
            <path class="cls-2" d="M64.76,60.883h-6.9a.452.452,0,0,0,0,.9h6.9a.452.452,0,1,0,0-.9Z"/>
            <circle class="cls-4" cx="61.311" cy="58.02" r="0.585"/>
          </g>
          <g>
            <path class="cls-5" d="M61.637,46.335a1.127,1.127,0,0,0-1.127,1.126v1.112a1.127,1.127,0,0,0,2.254,0V47.462A1.127,1.127,0,0,0,61.637,46.335Z"/>
            <path class="cls-5" d="M62.71,49.5a1.379,1.379,0,0,1-2.164-.023A2.409,2.409,0,0,0,59.078,51.7V53.92h4.958V51.7A2.478,2.478,0,0,0,62.71,49.5Z"/>
          </g>
        </g>
        <path class="cls-2" d="M58.723,36.554h-14.6a.45.45,0,1,0,0,.9h14.6a1.825,1.825,0,0,1,1.823,1.824v3.639a.45.45,0,0,0,.9,0V39.278A2.727,2.727,0,0,0,58.723,36.554Z"/>
      </g>
    </g>
  </g>
</svg>
