<svg id="Camada_1" data-name="Camada 1" xmlns="http://www.w3.org/2000/svg" viewBox="0 0 85.663 85.663">
  <defs>
    <style>
      .cls-1 {
        fill: none;
        stroke: #757474;
        stroke-miterlimit: 10;
      }

      .cls-2 {
        fill: #757474;
      }

      .cls-3 {
        fill: #464545;
      }

      .cls-4 {
        fill: #4ab4bb;
      }

      .cls-5 {
        fill: #a3a3a3;
      }

      .cls-6 {
        fill: #e8e8e8;
      }

      .cls-7 {
        fill: #f4f4f4;
      }
    </style>
  </defs>
  <title>78567ad6-7c36-4cff-9b8b-d23d5bd1a0a6</title>
  <g>
    <g>
      <path class="cls-1" d="M42.831.5A42.362,42.362,0,1,0,85.163,42.831,42.332,42.332,0,0,0,42.831.5Z" transform="translate(0 0)"/>
      <path class="cls-2" d="M42.831,85.163A42.349,42.349,0,0,0,83.3,55.287H2.364A42.349,42.349,0,0,0,42.831,85.163Z" transform="translate(0 0)"/>
    </g>
    <g>
      <g>
        <rect class="cls-3" x="14.221" y="20.981" width="57.449" height="38.181" rx="1.594" ry="1.594"/>
        <path class="cls-4" d="M19.194,24.382H66.7a1.572,1.572,0,0,1,1.572,1.572V50.716A1.571,1.571,0,0,1,66.7,52.287h-47.5a1.571,1.571,0,0,1-1.571-1.571V25.954A1.571,1.571,0,0,1,19.194,24.382Z"/>
        <rect class="cls-3" x="37.803" y="57.498" width="10.284" height="5.673"/>
        <path class="cls-3" d="M50.607,62.235H35.284a1,1,0,0,0,0,2.01H50.607a1,1,0,0,0,0-2.01Z" transform="translate(0 0)"/>
        <circle class="cls-5" cx="42.945" cy="55.874" r="1.3"/>
      </g>
      <g>
        <circle class="cls-6" cx="43.686" cy="37.846" r="11.98" transform="translate(-13.966 41.976) rotate(-45)"/>
        <circle class="cls-4" cx="43.686" cy="37.846" r="8.386" transform="translate(-13.966 41.977) rotate(-45.001)"/>
        <path class="cls-7" d="M49.555,41.12a.36.36,0,0,0-.5.112c-.063.1-.129.2-.2.295a6.426,6.426,0,0,1-1.486,1.488.36.36,0,0,0-.083.5.426.426,0,0,0,.038.045.361.361,0,0,0,.464.038,7.127,7.127,0,0,0,1.653-1.655c.077-.107.151-.218.221-.329A.36.36,0,0,0,49.555,41.12Z" transform="translate(0 0)"/>
        <path class="cls-7" d="M48.175,32.848a.36.36,0,0,0,0,.509,6.363,6.363,0,0,1,1.451,6.734.36.36,0,0,0,.674.254,7.086,7.086,0,0,0-1.615-7.5A.36.36,0,0,0,48.175,32.848Z" transform="translate(0 0)"/>
        <path class="cls-6" d="M34.334,43.8l-8.653,8.653a2.4,2.4,0,0,0,3.394,3.394L37.728,47.2A2.4,2.4,0,0,0,34.334,43.8Z" transform="translate(0 0)"/>
      </g>
    </g>
  </g>
</svg>
